<?xml version="1.0" encoding="UTF-8"?>
<!DOCTYPE svg PUBLIC "-//W3C//DTD SVG 1.1//EN" "http://www.w3.org/Graphics/SVG/1.1/DTD/svg11.dtd">
<svg xmlns="http://www.w3.org/2000/svg" version="1.1" width="229px" height="336px" style="shape-rendering:geometricPrecision; text-rendering:geometricPrecision; image-rendering:optimizeQuality; fill-rule:evenodd; clip-rule:evenodd" xmlns:xlink="http://www.w3.org/1999/xlink">
<g><path style="opacity:0.998" fill="#393939" d="M 219.5,331.5 C 217.5,331.5 215.5,331.5 213.5,331.5C 217.205,322.545 219.372,313.212 220,303.5C 220.667,221.5 220.667,139.5 220,57.5C 219.26,51.842 218.594,46.1753 218,40.5C 216.939,36.0505 215.105,32.0505 212.5,28.5C 146.002,27.5008 79.3354,27.1675 12.5,27.5C 9.59959,35.5563 7.76626,43.8896 7,52.5C 6.33333,137.167 6.33333,221.833 7,306.5C 8.05995,314.404 9.89329,322.071 12.5,329.5C 36.4771,331.49 60.8104,332.157 85.5,331.5C 57.0049,332.498 28.3382,332.831 -0.5,332.5C -0.5,332.167 -0.5,331.833 -0.5,331.5C 1.5,331.5 3.5,331.5 5.5,331.5C 2.62155,254.196 1.78821,176.863 3,99.5C 3.33484,76.138 4.33484,52.8047 6,29.5C 6.24013,27.1484 7.07346,25.1484 8.5,23.5C 38.1667,23.5 67.8333,23.5 97.5,23.5C 97.5,17.8333 97.5,12.1667 97.5,6.5C 99.5418,4.1703 102.208,3.00363 105.5,3C 113.888,2.16945 122.221,2.50279 130.5,4C 132.492,4.57429 133.992,5.74096 135,7.5C 135.251,12.5007 135.084,17.5007 134.5,22.5C 162.169,22.3334 189.835,22.5 217.5,23C 218.126,23.7504 218.626,24.5838 219,25.5C 220.616,39.788 221.616,54.1214 222,68.5C 223.987,143.5 223.987,218.5 222,293.5C 221.625,306.209 220.792,318.875 219.5,331.5 Z"/></g>
<g><path style="opacity:0.633" fill="#535353" d="M 97.5,6.5 C 97.5,12.1667 97.5,17.8333 97.5,23.5C 67.8333,23.5 38.1667,23.5 8.5,23.5C 37.6619,22.5019 66.9953,22.1686 96.5,22.5C 96.1786,16.9738 96.5119,11.6405 97.5,6.5 Z"/></g>
<g><path style="opacity:1" fill="#c3c3c3" d="M 212.5,28.5 C 209.833,28.5 207.167,28.5 204.5,28.5C 143.929,28.1689 83.4287,28.5022 23,29.5C 19.7461,35.7521 17.7461,42.4188 17,49.5C 16.3333,133.167 16.3333,216.833 17,300.5C 17.3928,308.461 18.5595,316.294 20.5,324C 20.7455,329.943 18.0789,331.776 12.5,329.5C 9.89329,322.071 8.05995,314.404 7,306.5C 6.33333,221.833 6.33333,137.167 7,52.5C 7.76626,43.8896 9.59959,35.5563 12.5,27.5C 79.3354,27.1675 146.002,27.5008 212.5,28.5 Z"/></g>
<g><path style="opacity:1" fill="#fefefe" d="M 204.5,28.5 C 207.666,36.1724 209.5,44.1724 210,52.5C 210.667,136.833 210.667,221.167 210,305.5C 207.658,314.02 206.491,322.686 206.5,331.5C 184.141,332.156 162.141,331.489 140.5,329.5C 141.566,324.681 142.4,319.681 143,314.5C 143.806,296.79 143.639,279.123 142.5,261.5C 142.795,259.265 142.461,257.265 141.5,255.5C 141.425,252.794 141.092,250.127 140.5,247.5C 150.839,247.666 161.172,247.5 171.5,247C 176.201,243.219 176.534,239.219 172.5,235C 134.167,234.333 95.8333,234.333 57.5,235C 53.399,239.294 53.7324,243.294 58.5,247C 67.5184,247.168 76.5184,247.668 85.5,248.5C 84.7542,249.736 84.4208,251.07 84.5,252.5C 83.5269,254.948 83.1936,257.615 83.5,260.5C 82.5474,275.798 82.214,291.131 82.5,306.5C 82.2155,308.415 82.5489,310.081 83.5,311.5C 83.3342,316.179 83.5008,320.845 84,325.5C 84.21,327.058 84.71,328.391 85.5,329.5C 85.5,330.167 85.5,330.833 85.5,331.5C 60.8104,332.157 36.4771,331.49 12.5,329.5C 18.0789,331.776 20.7455,329.943 20.5,324C 18.5595,316.294 17.3928,308.461 17,300.5C 16.3333,216.833 16.3333,133.167 17,49.5C 17.7461,42.4188 19.7461,35.7521 23,29.5C 83.4287,28.5022 143.929,28.1689 204.5,28.5 Z"/></g>
<g><path style="opacity:1" fill="#c6c6c6" d="M 204.5,28.5 C 207.167,28.5 209.833,28.5 212.5,28.5C 215.105,32.0505 216.939,36.0505 218,40.5C 218.594,46.1753 219.26,51.842 220,57.5C 220.667,139.5 220.667,221.5 220,303.5C 219.372,313.212 217.205,322.545 213.5,331.5C 211.167,331.5 208.833,331.5 206.5,331.5C 206.491,322.686 207.658,314.02 210,305.5C 210.667,221.167 210.667,136.833 210,52.5C 209.5,44.1724 207.666,36.1724 204.5,28.5 Z"/></g>
<g><path style="opacity:1" fill="#c7c8c8" d="M 132.5,51.5 C 133.493,60.3178 133.827,69.3178 133.5,78.5C 144.014,78.1724 154.347,78.5058 164.5,79.5C 153.833,79.5 143.167,79.5 132.5,79.5C 132.5,70.1667 132.5,60.8333 132.5,51.5 Z"/></g>
<g><path style="opacity:1" fill="#353230" d="M 132.5,51.5 C 132.5,60.8333 132.5,70.1667 132.5,79.5C 143.167,79.5 153.833,79.5 164.5,79.5C 165.458,79.9528 166.292,80.6195 167,81.5C 167.667,91.8333 167.667,102.167 167,112.5C 166.292,113.381 165.458,114.047 164.5,114.5C 153.833,114.5 143.167,114.5 132.5,114.5C 132.5,123.833 132.5,133.167 132.5,142.5C 132.389,143.117 132.056,143.617 131.5,144C 119.167,144.667 106.833,144.667 94.5,144C 94,143.5 93.5,143 93,142.5C 92.5002,133.173 92.3335,123.839 92.5,114.5C 81.8281,114.667 71.1615,114.5 60.5,114C 60,113.5 59.5,113 59,112.5C 58.3333,102.167 58.3333,91.8333 59,81.5C 59.5,81 60,80.5 60.5,80C 71.1615,79.5002 81.8281,79.3335 92.5,79.5C 92.3335,70.1607 92.5002,60.8274 93,51.5C 93.5,51 94,50.5 94.5,50C 106.833,49.3333 119.167,49.3333 131.5,50C 132.056,50.3826 132.389,50.8826 132.5,51.5 Z"/></g>
<g><path style="opacity:1" fill="#632313" d="M 63.5,109.5 C 75.1667,109.5 86.8333,109.5 98.5,109.5C 98.5,119.5 98.5,129.5 98.5,139.5C 97.5062,130.014 97.1729,120.348 97.5,110.5C 85.9877,110.828 74.6544,110.495 63.5,109.5 Z"/></g>
<g><path style="opacity:1" fill="#662616" d="M 127.5,84.5 C 127.5,84.1667 127.5,83.8333 127.5,83.5C 138.833,83.5 150.167,83.5 161.5,83.5C 162.117,83.6107 162.617,83.944 163,84.5C 163.167,88.6667 163.333,92.8333 163.5,97C 163.491,101.557 162.825,105.724 161.5,109.5C 161.816,101.248 161.482,93.081 160.5,85C 149.505,84.5002 138.505,84.3335 127.5,84.5 Z"/></g>
<g><path style="opacity:1" fill="#b43311" d="M 127.5,84.5 C 138.505,84.3335 149.505,84.5002 160.5,85C 161.482,93.081 161.816,101.248 161.5,109.5C 150.167,109.5 138.833,109.5 127.5,109.5C 138.321,108.505 149.321,108.172 160.5,108.5C 160.5,101.167 160.5,93.8333 160.5,86.5C 149.116,87.1436 138.116,86.477 127.5,84.5 Z"/></g>
<g><path style="opacity:1" fill="#a33418" d="M 99.5,54.5 C 99.8194,64.7491 99.4861,74.9158 98.5,85C 87.1716,85.4999 75.8382,85.6665 64.5,85.5C 64.5,93.1667 64.5,100.833 64.5,108.5C 76.1667,108.5 87.8333,108.5 99.5,108.5C 99.5,118.5 99.5,128.5 99.5,138.5C 108.5,138.5 117.5,138.5 126.5,138.5C 126.173,128.652 126.506,118.986 127.5,109.5C 127.5,119.5 127.5,129.5 127.5,139.5C 117.833,140.833 108.167,140.833 98.5,139.5C 98.5,129.5 98.5,119.5 98.5,109.5C 86.8333,109.5 75.1667,109.5 63.5,109.5C 63.5,101.167 63.5,92.8333 63.5,84.5C 74.8382,84.6665 86.1716,84.4999 97.5,84C 98.1553,74.0684 98.822,64.2351 99.5,54.5 Z"/></g>
<g><path style="opacity:1" fill="#682212" d="M 99.5,53.5 C 99.5,53.8333 99.5,54.1667 99.5,54.5C 98.822,64.2351 98.1553,74.0684 97.5,84C 86.1716,84.4999 74.8382,84.6665 63.5,84.5C 63.5,92.8333 63.5,101.167 63.5,109.5C 62.507,101.016 62.1736,92.3494 62.5,83.5C 73.8382,83.6665 85.1716,83.4999 96.5,83C 96.8238,72.8581 97.8238,63.0248 99.5,53.5 Z"/></g>
<g><path style="opacity:1" fill="#45231c" d="M 127.5,53.5 C 128.494,62.9856 128.827,72.6522 128.5,82.5C 139.679,82.1721 150.679,82.5054 161.5,83.5C 150.167,83.5 138.833,83.5 127.5,83.5C 127.5,73.5 127.5,63.5 127.5,53.5 Z"/></g>
<g><path style="opacity:1" fill="#a23215" d="M 99.5,54.5 C 99.5,54.1667 99.5,53.8333 99.5,53.5C 108.833,53.5 118.167,53.5 127.5,53.5C 127.5,63.5 127.5,73.5 127.5,83.5C 126.506,74.0144 126.173,64.3478 126.5,54.5C 117.5,54.5 108.5,54.5 99.5,54.5 Z"/></g>
<g><path style="opacity:1" fill="#c52d03" d="M 99.5,54.5 C 108.5,54.5 117.5,54.5 126.5,54.5C 126.173,64.3478 126.506,74.0144 127.5,83.5C 127.5,83.8333 127.5,84.1667 127.5,84.5C 138.116,86.477 149.116,87.1436 160.5,86.5C 160.5,93.8333 160.5,101.167 160.5,108.5C 149.321,108.172 138.321,108.505 127.5,109.5C 126.506,118.986 126.173,128.652 126.5,138.5C 117.5,138.5 108.5,138.5 99.5,138.5C 99.5,128.5 99.5,118.5 99.5,108.5C 87.8333,108.5 76.1667,108.5 64.5,108.5C 64.5,100.833 64.5,93.1667 64.5,85.5C 75.8382,85.6665 87.1716,85.4999 98.5,85C 99.4861,74.9158 99.8194,64.7491 99.5,54.5 Z"/></g>
<g><path style="opacity:1" fill="#dadad9" d="M 164.5,114.5 C 154.347,115.494 144.014,115.828 133.5,115.5C 133.827,124.682 133.493,133.682 132.5,142.5C 132.5,133.167 132.5,123.833 132.5,114.5C 143.167,114.5 153.833,114.5 164.5,114.5 Z"/></g>
<g><path style="opacity:1" fill="#512519" d="M 127.5,109.5 C 138.833,109.5 150.167,109.5 161.5,109.5C 150.679,110.495 139.679,110.828 128.5,110.5C 128.827,120.348 128.494,130.014 127.5,139.5C 127.5,129.5 127.5,119.5 127.5,109.5 Z"/></g>
<g><path style="opacity:1" fill="#090a0a" d="M 141.5,255.5 C 141.768,257.099 141.434,258.432 140.5,259.5C 140.348,255.738 139.681,252.072 138.5,248.5C 121.179,247.5 103.846,247.167 86.5,247.5C 86.4955,251.534 86.1621,255.534 85.5,259.5C 84.5318,257.393 84.1984,255.059 84.5,252.5C 84.4208,251.07 84.7542,249.736 85.5,248.5C 76.5184,247.668 67.5184,247.168 58.5,247C 53.7324,243.294 53.399,239.294 57.5,235C 95.8333,234.333 134.167,234.333 172.5,235C 176.534,239.219 176.201,243.219 171.5,247C 161.172,247.5 150.839,247.666 140.5,247.5C 141.092,250.127 141.425,252.794 141.5,255.5 Z"/></g>
<g><path style="opacity:1" fill="#deeced" d="M 140.5,259.5 C 140.183,263.702 140.517,267.702 141.5,271.5C 141.959,289.894 141.292,308.227 139.5,326.5C 139.579,327.93 139.246,329.264 138.5,330.5C 121.179,331.5 103.846,331.833 86.5,331.5C 86.5,330.167 86.5,328.833 86.5,327.5C 85.5414,321.205 84.8747,314.872 84.5,308.5C 84.5,297.167 84.5,285.833 84.5,274.5C 84.5,270.167 84.5,265.833 84.5,261.5C 85.3382,261.158 85.6716,260.492 85.5,259.5C 86.1621,255.534 86.4955,251.534 86.5,247.5C 103.846,247.167 121.179,247.5 138.5,248.5C 139.681,252.072 140.348,255.738 140.5,259.5 Z"/></g>
<g><path style="opacity:1" fill="#fdfefe" d="M 123.5,257.5 C 126.37,257.248 128.703,258.248 130.5,260.5C 132.11,264.172 133.61,267.838 135,271.5C 135.879,282.55 135.546,293.55 134,304.5C 133.46,307.361 132.46,310.028 131,312.5C 127.021,316.644 123.355,316.31 120,311.5C 114.809,296.765 114.143,281.765 118,266.5C 119.194,263.047 121.027,260.047 123.5,257.5 Z"/></g>
<g><path style="opacity:1" fill="#525757" d="M 84.5,252.5 C 84.1984,255.059 84.5318,257.393 85.5,259.5C 85.6716,260.492 85.3382,261.158 84.5,261.5C 84.5,260.833 84.1667,260.5 83.5,260.5C 83.1936,257.615 83.5269,254.948 84.5,252.5 Z"/></g>
<g><path style="opacity:1" fill="#717676" d="M 141.5,255.5 C 142.461,257.265 142.795,259.265 142.5,261.5C 141.521,264.625 141.187,267.958 141.5,271.5C 140.517,267.702 140.183,263.702 140.5,259.5C 141.434,258.432 141.768,257.099 141.5,255.5 Z"/></g>
<g><path style="opacity:1" fill="#121415" d="M 83.5,260.5 C 84.1667,260.5 84.5,260.833 84.5,261.5C 84.5,265.833 84.5,270.167 84.5,274.5C 83.8333,285.167 83.1667,295.833 82.5,306.5C 82.214,291.131 82.5474,275.798 83.5,260.5 Z"/></g>
<g><path style="opacity:1" fill="#272a2a" d="M 142.5,261.5 C 143.639,279.123 143.806,296.79 143,314.5C 142.4,319.681 141.566,324.681 140.5,329.5C 140.737,328.209 140.404,327.209 139.5,326.5C 141.292,308.227 141.959,289.894 141.5,271.5C 141.187,267.958 141.521,264.625 142.5,261.5 Z"/></g>
<g><path style="opacity:1" fill="#5a5f61" d="M 84.5,274.5 C 84.5,285.833 84.5,297.167 84.5,308.5C 83.596,309.209 83.2627,310.209 83.5,311.5C 82.5489,310.081 82.2155,308.415 82.5,306.5C 83.1667,295.833 83.8333,285.167 84.5,274.5 Z"/></g>
<g><path style="opacity:1" fill="#2d3232" d="M 84.5,308.5 C 84.8747,314.872 85.5414,321.205 86.5,327.5C 85.6618,327.842 85.3284,328.508 85.5,329.5C 84.71,328.391 84.21,327.058 84,325.5C 83.5008,320.845 83.3342,316.179 83.5,311.5C 83.2627,310.209 83.596,309.209 84.5,308.5 Z"/></g>
<g><path style="opacity:0.968" fill="#323333" d="M 139.5,326.5 C 140.404,327.209 140.737,328.209 140.5,329.5C 162.141,331.489 184.141,332.156 206.5,331.5C 208.833,331.5 211.167,331.5 213.5,331.5C 215.5,331.5 217.5,331.5 219.5,331.5C 222.5,331.5 225.5,331.5 228.5,331.5C 228.5,332.5 228.5,333.5 228.5,334.5C 153.331,334.167 78.3315,334.501 3.5,335.5C 2.16667,335.5 0.833333,335.5 -0.5,335.5C -0.5,334.5 -0.5,333.5 -0.5,332.5C 28.3382,332.831 57.0049,332.498 85.5,331.5C 85.5,330.833 85.5,330.167 85.5,329.5C 85.3284,328.508 85.6618,327.842 86.5,327.5C 86.5,328.833 86.5,330.167 86.5,331.5C 103.846,331.833 121.179,331.5 138.5,330.5C 139.246,329.264 139.579,327.93 139.5,326.5 Z"/></g>
</svg>
